<?xml version="1.0" encoding="UTF-8"?>
<svg version="1.1" xmlns="http://www.w3.org/2000/svg" width="268" height="190">
<path d="M0 0 C88.44 0 176.88 0 268 0 C268 62.7 268 125.4 268 190 C179.56 190 91.12 190 0 190 C0 127.3 0 64.6 0 0 Z " fill="#EEF6FB" transform="translate(0,0)"/>
<path d="M0 0 C6.18919185 2.50366371 10.01582255 8.16483339 13.93453979 13.29362488 C16.12304186 15.99235575 18.49222642 18.34848048 20.96188354 20.79362488 C21.93702674 21.77218053 22.91119452 22.75170895 23.88449097 23.73210144 C26.69986281 26.56516267 29.51819192 29.39526064 32.33761597 32.22428894 C33.55171639 33.44346107 34.7649241 34.6635228 35.9772644 35.88444519 C37.73412674 37.65338788 39.4941562 39.4191241 41.25485229 41.18424988 C41.79756271 41.73212158 42.34027313 42.27999329 42.89942932 42.84446716 C45.66424941 45.6703326 45.66424941 45.6703326 48.96188354 47.79362488 C48.96188354 48.45362488 48.96188354 49.11362488 48.96188354 49.79362488 C33.83582955 51.01868212 33.83582955 51.01868212 29.34469604 48.08268738 C27.64620538 46.0634517 26.28388359 44.0716734 24.96188354 41.79362488 C24.30188354 41.13362488 23.64188354 40.47362488 22.96188354 39.79362488 C19.94839159 40.12920308 19.94839159 40.12920308 16.96188354 40.79362488 C16.30188354 40.79362488 15.64188354 40.79362488 14.96188354 40.79362488 C15.00956757 42.67243359 15.00956757 42.67243359 15.96188354 44.79362488 C18.93951397 47.05687733 18.93951397 47.05687733 21.96188354 48.79362488 C22.45688354 47.80362488 22.45688354 47.80362488 22.96188354 46.79362488 C22.96188354 47.78362488 22.96188354 48.77362488 22.96188354 49.79362488 C23.95188354 49.79362488 24.94188354 49.79362488 25.96188354 49.79362488 C26.45688354 53.25862488 26.45688354 53.25862488 26.96188354 56.79362488 C27.56516479 56.96378113 28.16844604 57.13393738 28.79000854 57.30924988 C33.47251727 58.72910736 36.81499504 59.82580894 39.96188354 63.79362488 C38.82468936 67.20520743 37.91845411 67.91217088 34.96188354 69.79362488 C34.30188354 69.79362488 33.64188354 69.79362488 32.96188354 69.79362488 C32.30188354 68.80362488 31.64188354 67.81362488 30.96188354 66.79362488 C28.98441233 66.43064552 28.98441233 66.43064552 26.83688354 66.60612488 C25.55813354 66.66799988 24.27938354 66.72987488 22.96188354 66.79362488 C22.96188354 69.76362488 22.96188354 72.73362488 22.96188354 75.79362488 C26.26188354 76.78362488 29.56188354 77.77362488 32.96188354 78.79362488 C32.96188354 79.45362488 32.96188354 80.11362488 32.96188354 80.79362488 C34.10657104 81.16487488 34.10657104 81.16487488 35.27438354 81.54362488 C38.4065167 83.000431 39.44906147 83.6883585 40.96188354 86.79362488 C41.74757961 90.84781657 41.85871249 94.27352801 39.71969604 97.89909363 C37.24645682 100.88297677 35.69492572 102.54927748 31.96188354 103.79362488 C23.81307652 104.47362109 17.96246807 104.10167689 10.96188354 99.79362488 C10.63188354 99.79362488 10.30188354 99.79362488 9.96188354 99.79362488 C9.96188354 101.11362488 9.96188354 102.43362488 9.96188354 103.79362488 C5.01188354 104.28862488 5.01188354 104.28862488 -0.03811646 104.79362488 C2.27188354 105.45362488 4.58188354 106.11362488 6.96188354 106.79362488 C7.29188354 108.11362488 7.62188354 109.43362488 7.96188354 110.79362488 C12.25188354 111.12362488 16.54188354 111.45362488 20.96188354 111.79362488 C20.96188354 112.45362488 20.96188354 113.11362488 20.96188354 113.79362488 C19.54847717 115.17961121 19.54847717 115.17961121 17.56027222 116.81315613 C12.53564956 121.0886447 7.98369534 125.75384531 3.38766479 130.48112488 C1.56875381 132.33212306 -0.25093011 134.18236196 -2.07131958 136.03190613 C-4.91688412 138.9254994 -7.75746196 141.82360637 -10.58328247 144.73649597 C-13.32666221 147.56338736 -16.09394232 150.36621745 -18.86233521 153.16862488 C-19.70825729 154.04865173 -20.55417938 154.92867859 -21.42573547 155.83537292 C-22.61771294 157.0328717 -22.61771294 157.0328717 -23.83377075 158.25456238 C-24.8734626 159.31876404 -24.8734626 159.31876404 -25.93415833 160.40446472 C-28.03811646 161.79362488 -28.03811646 161.79362488 -30.69224548 161.61491394 C-33.52907651 160.62173984 -34.51676231 159.52578727 -36.35061646 157.16862488 C-38.78138492 154.20298143 -41.23153656 151.64197288 -44.16311646 149.16862488 C-47.53712921 146.3117022 -50.20467942 143.19374933 -53.03811646 139.79362488 C-54.98523223 138.00807828 -56.9840592 136.2956971 -58.99514771 134.58268738 C-60.95207702 132.86897107 -62.78032374 131.0882325 -64.60061646 129.23112488 C-67.35706574 126.42444417 -70.23000502 123.85006796 -73.26467896 121.34831238 C-75.63569317 119.26975807 -77.82124154 117.03601778 -80.03811646 114.79362488 C-81.14812345 113.68227811 -82.25883758 112.57163731 -83.37014771 111.46159363 C-86.59280396 108.23893738 -89.81546021 105.01628113 -93.03811646 101.79362488 C-92.13326853 100.6384357 -91.21369585 99.49477082 -90.28811646 98.35612488 C-89.77764771 97.71803894 -89.26717896 97.079953 -88.74124146 96.42253113 C-86.80751669 94.57307419 -85.69138139 94.02711219 -83.03811646 93.79362488 C-80.33972293 95.61504051 -78.20604483 97.61551903 -75.97561646 99.98112488 C-73.91287181 101.91078922 -72.8630249 102.7024988 -70.03811646 102.79362488 C-68.12144979 101.71029154 -68.12144979 101.71029154 -67.03811646 99.79362488 C-67.46137326 96.57185599 -68.51694239 94.94912196 -70.81375122 92.70915222 C-71.3942775 92.13530792 -71.97480377 91.56146362 -72.57292175 90.9702301 C-73.20210007 90.36280975 -73.83127838 89.7553894 -74.47952271 89.12956238 C-75.12179306 88.49628021 -75.76406342 87.86299805 -76.42579651 87.21052551 C-78.47706755 85.18927976 -80.53794103 83.17822645 -82.60061646 81.16862488 C-84.66595466 79.15101658 -86.7290151 77.13127586 -88.78614807 75.1053009 C-90.06650568 73.84479793 -91.35177615 72.58926289 -92.64225769 71.33912659 C-94.14543964 69.86154762 -95.59733208 68.33210983 -97.03811646 66.79362488 C-97.03811646 66.13362488 -97.03811646 65.47362488 -97.03811646 64.79362488 C-95.46389771 63.24284363 -95.46389771 63.24284363 -93.35061646 61.48112488 C-88.95100513 57.73101681 -84.91746819 53.8726015 -81.22561646 49.41862488 C-78.52845824 46.22983276 -75.58218916 43.593946 -72.39749146 40.90299988 C-68.7868119 37.67490889 -65.43167653 34.19454661 -62.07473755 30.70500183 C-60.76525842 29.36499523 -59.40536627 28.07463278 -58.03811646 26.79362488 C-57.37811646 26.79362488 -56.71811646 26.79362488 -56.03811646 26.79362488 C-55.83186646 26.23674988 -55.62561646 25.67987488 -55.41311646 25.10612488 C-53.89218225 22.54819007 -52.06278667 21.10641305 -49.74905396 19.27799988 C-47.79719348 17.58460495 -46.16116906 15.75151568 -44.47561646 13.79362488 C-43.59776489 12.77462097 -43.59776489 12.77462097 -42.70217896 11.73503113 C-41.67442055 10.53597966 -40.64808003 9.33570919 -39.62405396 8.13346863 C-38.35061646 6.73112488 -38.35061646 6.73112488 -36.03811646 4.79362488 C-32.24297145 4.6750266 -29.79605794 7.41873082 -27.03811646 9.79362488 C-27.6127182 12.98223575 -28.44132887 14.54633129 -30.80374146 16.74674988 C-31.6415918 17.54641174 -31.6415918 17.54641174 -32.49636841 18.36222839 C-33.08764526 18.91708923 -33.67892212 19.47195007 -34.28811646 20.04362488 C-39.02075288 24.62971219 -43.10131787 28.8112574 -46.03811646 34.79362488 C-46.03811646 36.11362488 -46.03811646 37.43362488 -46.03811646 38.79362488 C-45.04811646 39.28862488 -45.04811646 39.28862488 -44.03811646 39.79362488 C-44.03811646 40.45362488 -44.03811646 41.11362488 -44.03811646 41.79362488 C-40.51429959 39.24757891 -40.51429959 39.24757891 -38.03811646 35.79362488 C-37.37811646 35.79362488 -36.71811646 35.79362488 -36.03811646 35.79362488 C-35.77207611 35.20390396 -35.50603577 34.61418304 -35.23193359 34.0065918 C-34.00865018 31.73900354 -32.73602372 30.21981288 -30.93704224 28.38615417 C-29.99563889 27.42076973 -29.99563889 27.42076973 -29.03521729 26.43588257 C-28.35812714 25.75342972 -27.68103699 25.07097687 -26.98342896 24.36784363 C-26.28547211 23.66085831 -25.58751526 22.95387299 -24.8684082 22.22546387 C-23.39337602 20.73594353 -21.91553257 19.24920258 -20.43508911 17.76506042 C-18.16617531 15.48419984 -15.91657895 13.18535587 -13.66702271 10.88542175 C-12.23197655 9.44091725 -10.79581597 7.99751883 -9.35842896 6.55534363 C-8.68538727 5.86276962 -8.01234558 5.17019562 -7.31890869 4.45663452 C-6.36804886 3.51489128 -6.36804886 3.51489128 -5.39797974 2.55412292 C-4.84441803 1.99549057 -4.29085632 1.43685822 -3.72052002 0.86129761 C-2.03811646 -0.20637512 -2.03811646 -0.20637512 0 0 Z " fill="#E9F1F7" transform="translate(135.03811645507813,20.206375122070313)"/>
<path d="M0 0 C2.61381967 1.3885917 4.76193368 3.13527622 7 5.0625 C6.42188317 8.25896834 5.55859318 9.86881566 3.234375 12.12109375 C2.39326172 12.94770508 2.39326172 12.94770508 1.53515625 13.79101562 C0.94605469 14.35498047 0.35695312 14.91894531 -0.25 15.5 C-1.11044922 16.34014648 -1.11044922 16.34014648 -1.98828125 17.19726562 C-3.12112385 18.3030129 -4.25633871 19.4063356 -5.39404297 20.50708008 C-8.55373975 23.56734584 -11.60777083 26.57737444 -14.375 30 C-16.70001879 32.8554137 -19.32870513 35.07624855 -22.1640625 37.41015625 C-24.8685255 39.84417295 -27.12621379 42.60984168 -29.421875 45.42578125 C-31 47.0625 -31 47.0625 -34 48.0625 C-34.28875 48.64 -34.5775 49.2175 -34.875 49.8125 C-36.39612622 52.85475245 -38.48713896 54.80092507 -41 57.0625 C-41.66 57.0625 -42.32 57.0625 -43 57.0625 C-43.94607807 59.81211511 -43.94607807 59.81211511 -44 63.0625 C-41.8971941 65.74976558 -41.8971941 65.74976558 -39 68.0625 C-38.21625 68.866875 -37.4325 69.67125 -36.625 70.5 C-34.61084435 72.46619956 -32.60766635 74.22314738 -30.4375 76 C-28.11845744 77.94740112 -26.83565398 79.32318679 -25.1875 81.9375 C-23.03317173 85.01511182 -21.13524959 86.66453646 -18.1875 88.9375 C-14.33707057 91.91054565 -11.23068939 94.90206825 -8.13671875 98.6328125 C-3.07110536 104.39297982 2.54422537 109.67482797 8 115.0625 C5.7778299 118.99202661 3.66493629 121.38808703 0 124.0625 C-0.4125 123.63839844 -0.825 123.21429688 -1.25 122.77734375 C-1.8275 122.19082031 -2.405 121.60429687 -3 121 C-3.556875 120.43152344 -4.11375 119.86304688 -4.6875 119.27734375 C-6.56279804 117.48123904 -8.46600581 115.80224675 -10.43945312 114.11865234 C-15.95423225 109.30267385 -21.10499437 104.12176406 -26.28125 98.94921875 C-27.34591685 97.88777149 -28.41065609 96.82639683 -29.47546387 95.76509094 C-31.68918521 93.55731351 -33.90087508 91.34752404 -36.11132812 89.13647461 C-38.94880702 86.29889318 -41.79315935 83.46830773 -44.63922882 80.63934612 C-46.83184971 78.45780511 -49.01994977 76.27177358 -51.20677185 74.08442116 C-52.25459151 73.03778326 -53.30403701 71.99277047 -54.3551178 70.94940758 C-55.81507862 69.49918572 -57.26863683 68.04283711 -58.72070312 66.5847168 C-59.54928833 65.75755661 -60.37787354 64.93039642 -61.23156738 64.07817078 C-63 62.0625 -63 62.0625 -63 60.0625 C-61.42578125 58.51171875 -61.42578125 58.51171875 -59.3125 56.75 C-54.91288868 52.99989193 -50.87935173 49.14147662 -47.1875 44.6875 C-44.49034178 41.49870788 -41.5440727 38.86282112 -38.359375 36.171875 C-34.74869545 32.94378401 -31.39356008 29.46342173 -28.03662109 25.97387695 C-26.72714196 24.63387035 -25.36724981 23.3435079 -24 22.0625 C-23.34 22.0625 -22.68 22.0625 -22 22.0625 C-21.79375 21.505625 -21.5875 20.94875 -21.375 20.375 C-19.85406579 17.8170652 -18.02467021 16.37528817 -15.7109375 14.546875 C-13.75907703 12.85348007 -12.1230526 11.0203908 -10.4375 9.0625 C-9.55964844 8.04349609 -9.55964844 8.04349609 -8.6640625 7.00390625 C-7.63630409 5.80485478 -6.60996358 4.60458431 -5.5859375 3.40234375 C-2.56925282 0.08028915 -2.56925282 0.08028915 0 0 Z " fill="#22397E" transform="translate(101,24.9375)"/>
<path d="M0 0 C6.18919185 2.50366371 10.01582255 8.16483339 13.93453979 13.29362488 C16.12304186 15.99235575 18.49222642 18.34848048 20.96188354 20.79362488 C21.93702674 21.77218053 22.91119452 22.75170895 23.88449097 23.73210144 C26.69986281 26.56516267 29.51819192 29.39526064 32.33761597 32.22428894 C33.55171639 33.44346107 34.7649241 34.6635228 35.9772644 35.88444519 C37.73412674 37.65338788 39.4941562 39.4191241 41.25485229 41.18424988 C41.79756271 41.73212158 42.34027313 42.27999329 42.89942932 42.84446716 C45.66424941 45.6703326 45.66424941 45.6703326 48.96188354 47.79362488 C48.96188354 48.45362488 48.96188354 49.11362488 48.96188354 49.79362488 C46.26999014 50.01164099 43.59590835 50.16872381 40.89938354 50.29362488 C39.77113159 50.39417175 39.77113159 50.39417175 38.62008667 50.49674988 C35.30423531 50.61158456 32.93129954 50.58472971 30.29611206 48.43424988 C29.16798481 47.11019114 28.07901698 45.75233993 27.01828003 44.373703 C24.48822338 41.19934249 21.69139323 38.39645154 18.80953979 35.54362488 C18.26035385 34.99589417 17.71116791 34.44816345 17.14533997 33.88383484 C15.44075528 32.18466692 13.73264439 30.48909609 12.02438354 28.79362488 C10.85162346 27.62589114 9.67909557 26.45792414 8.50680542 25.28971863 C5.66116666 22.45499253 2.81240901 19.62343663 -0.03811646 16.79362488 C-6.40320213 22.04182545 -12.19134621 27.8183394 -18.00296021 33.66081238 C-19.04648724 34.70620813 -20.09023798 35.75138063 -21.13420105 36.79634094 C-23.8604239 39.52635327 -26.58362827 42.25935681 -29.30618286 44.99302673 C-32.09324105 47.79037641 -34.88318791 50.58484189 -37.67288208 53.37956238 C-43.13076727 58.84812182 -48.58546204 64.31984932 -54.03811646 69.79362488 C-57.35884173 68.21365875 -59.7184148 66.71473066 -62.03811646 63.79362488 C-61.82968216 59.58982241 -59.03877484 57.46671772 -56.16311646 54.66081238 C-55.67859009 54.18290253 -55.19406372 53.70499268 -54.69485474 53.21260071 C-53.14955812 51.69066395 -51.59444882 50.17926763 -50.03811646 48.66862488 C-48.48356826 47.14914529 -46.93118269 45.6275433 -45.38137817 44.10322571 C-43.97687625 42.7234497 -42.5662307 41.34993579 -41.15530396 39.97673035 C-39.00533523 37.97943763 -39.00533523 37.97943763 -38.03811646 35.79362488 C-37.37811646 35.79362488 -36.71811646 35.79362488 -36.03811646 35.79362488 C-35.77207611 35.20390396 -35.50603577 34.61418304 -35.23193359 34.0065918 C-34.00865018 31.73900354 -32.73602372 30.21981288 -30.93704224 28.38615417 C-29.99563889 27.42076973 -29.99563889 27.42076973 -29.03521729 26.43588257 C-28.35812714 25.75342972 -27.68103699 25.07097687 -26.98342896 24.36784363 C-26.28547211 23.66085831 -25.58751526 22.95387299 -24.8684082 22.22546387 C-23.39337602 20.73594353 -21.91553257 19.24920258 -20.43508911 17.76506042 C-18.16617531 15.48419984 -15.91657895 13.18535587 -13.66702271 10.88542175 C-12.23197655 9.44091725 -10.79581597 7.99751883 -9.35842896 6.55534363 C-8.68538727 5.86276962 -8.01234558 5.17019562 -7.31890869 4.45663452 C-6.68500214 3.82880569 -6.05109558 3.20097687 -5.39797974 2.55412292 C-4.84441803 1.99549057 -4.29085632 1.43685822 -3.72052002 0.86129761 C-2.03811646 -0.20637512 -2.03811646 -0.20637512 0 0 Z " fill="#21377D" transform="translate(135.03811645507813,20.206375122070313)"/>
<path d="M0 0 C7.08617275 0.94279552 12.33312747 8.17980305 16.640625 13.37890625 C19.59698979 16.90445621 22.9089038 19.94224132 26.4375 22.875 C28.8563348 24.91328536 30.92770167 26.99625039 32.9375 29.4375 C35.67318539 32.74797036 38.71502071 35.45984075 41.98046875 38.23828125 C45.97633279 41.72403498 49.69693532 45.51078323 53.1875 49.5 C53.785625 49.995 54.38375 50.49 55 51 C58.31344162 50.61867288 59.85243338 49.47831044 62.04589844 47.04077148 C62.61459656 46.4202037 63.18329468 45.79963593 63.76922607 45.16026306 C64.37647522 44.48733719 64.98372437 43.81441132 65.609375 43.12109375 C66.9341131 41.70962892 68.26100925 40.30018704 69.58984375 38.89257812 C71.6709373 36.67625018 73.73697756 34.45200491 75.76806641 32.18969727 C87.72671324 18.93132436 87.72671324 18.93132436 94.58398438 18.03564453 C98.48502244 17.88490215 102.16746203 18.2897856 106 19 C98.49379471 28.00958421 90.12925878 36.20781932 81.87768555 44.52734375 C79.90749123 46.51547946 77.94620491 48.51182793 75.99194336 50.515625 C73.16634006 53.4127122 70.31682064 56.28511857 67.46484375 59.15625 C66.59077377 60.05815063 65.7167038 60.96005127 64.81614685 61.88928223 C63.99501907 62.7076355 63.1738913 63.52598877 62.32788086 64.36914062 C61.25249306 65.45998962 61.25249306 65.45998962 60.15538025 66.57287598 C58 68 58 68 55.33815002 67.82702637 C52.51133531 66.82715455 51.51727916 65.72692457 49.6875 63.375 C47.25673153 60.40935655 44.80657989 57.84834801 41.875 55.375 C38.50098724 52.51807732 35.83343704 49.40012445 33 46 C31.05288422 44.21445341 29.05405726 42.50207223 27.04296875 40.7890625 C25.08603943 39.07534619 23.25779271 37.29460762 21.4375 35.4375 C18.68105072 32.63081929 15.80811144 30.05644309 12.7734375 27.5546875 C10.40242329 25.47613319 8.21687491 23.2423929 6 21 C4.88999301 19.88865323 3.77927888 18.77801243 2.66796875 17.66796875 C-0.5546875 14.4453125 -3.77734375 11.22265625 -7 8 C-6.02133662 6.85373678 -5.04205413 5.70800212 -4.0625 4.5625 C-3.51722656 3.92441406 -2.97195312 3.28632812 -2.41015625 2.62890625 C-1.63204305 1.73008851 -0.84063472 0.84063472 0 0 Z " fill="#21377D" transform="translate(49,114)"/>
<path d="M0 0 C3.3 0 6.6 0 10 0 C10.33 5.61 10.66 11.22 11 17 C11.78375 15.845 12.5675 14.69 13.375 13.5 C14.7109375 11.53125 14.7109375 11.53125 16 10 C16.66 10 17.32 10 18 10 C18.268125 9.030625 18.53625 8.06125 18.8125 7.0625 C19.204375 6.051875 19.59625 5.04125 20 4 C20.99 3.67 21.98 3.34 23 3 C23.33 2.01 23.66 1.02 24 0 C27.3 0 30.6 0 34 0 C31.72155044 4.55689912 28.75314224 8.22460644 25.54492188 12.13476562 C23.00260812 15.33412376 21.06923718 17.83192155 21 22 C21.93773496 24.22007174 21.93773496 24.22007174 23.4375 26.1875 C26 29.83923706 26 29.83923706 26 32 C27.485 32.495 27.485 32.495 29 33 C31.25498703 36.24718132 32.51178635 39.27946588 34 43 C30.37 43 26.74 43 23 43 C23 42.34 23 41.68 23 41 C22.34 41 21.68 41 21 41 C20.46375 40.05125 19.9275 39.1025 19.375 38.125 C16.66071314 33.37011619 13.826238 28.68898577 11 24 C10.67 30.6 10.34 37.2 10 44 C6.7 44 3.4 44 0 44 C0 29.48 0 14.96 0 0 Z " fill="#C8645C" transform="translate(110,80)"/>
<path d="M0 0 C0 0.66 0 1.32 0 2 C-1.43276978 3.41029358 -1.43276978 3.41029358 -3.43603516 5.06274414 C-8.22166717 9.13487213 -12.61471309 13.52303425 -17.0234375 17.99609375 C-18.71992298 19.70520628 -20.41654132 21.41418695 -22.11328125 23.12304688 C-24.7618242 25.79655742 -27.40873075 28.471652 -30.05322266 31.14916992 C-32.62232281 33.74828624 -35.19745374 36.34130229 -37.7734375 38.93359375 C-38.56922211 39.74283798 -39.36500671 40.55208221 -40.18490601 41.385849 C-40.91972198 42.12404373 -41.65453796 42.86223846 -42.41162109 43.62280273 C-43.05811615 44.27675522 -43.70461121 44.9307077 -44.37069702 45.60447693 C-46 47 -46 47 -48 47 C-49.54296875 45.609375 -49.54296875 45.609375 -51.1875 43.75 C-51.73792969 43.14671875 -52.28835937 42.5434375 -52.85546875 41.921875 C-54 40 -54 40 -53.76831055 38.11480713 C-52.85236083 35.59361696 -51.6762496 34.20480655 -49.8515625 32.24121094 C-49.18576172 31.52076599 -48.51996094 30.80032104 -47.83398438 30.05804443 C-44.7317546 26.79475449 -41.61879371 23.54316667 -38.47753906 20.31738281 C-36.83598468 18.61630024 -35.21251635 16.89756261 -33.60839844 15.16113281 C-23.15827407 3.85705689 -15.9032566 -3.25293885 0 0 Z " fill="#243B7F" transform="translate(186,131)"/>
<path d="M0 0 C0 2.97 0 5.94 0 9 C-2.475 8.01 -2.475 8.01 -5 7 C-5 6.34 -5 5.68 -5 5 C-6.72880982 4.94550162 -8.45812712 4.90698312 -10.1875 4.875 C-11.63189453 4.84019531 -11.63189453 4.84019531 -13.10546875 4.8046875 C-17.50996687 5.1018871 -20.35728027 6.57152018 -24 9 C-24.33 9.99 -24.66 10.98 -25 12 C-25.66 12 -26.32 12 -27 12 C-27.33 16.29 -27.66 20.58 -28 25 C-27.34 25 -26.68 25 -26 25 C-25.54625 25.94875 -25.0925 26.8975 -24.625 27.875 C-22.71328142 31.68012226 -22.71328142 31.68012226 -19.14453125 33.61328125 C-12.78707278 34.75970819 -7.06558262 34.06487919 -1 32 C-1 34.64 -1 37.28 -1 40 C-5.67049515 42.7376287 -8.98799719 43.33996234 -14.375 43.1875 C-15.62023437 43.16042969 -16.86546875 43.13335937 -18.1484375 43.10546875 C-19.08945313 43.07066406 -20.03046875 43.03585938 -21 43 C-21 42.34 -21 41.68 -21 41 C-21.886875 40.938125 -22.77375 40.87625 -23.6875 40.8125 C-27.77194586 39.81065479 -29.347136 38.19904189 -32 35 C-32 34.34 -32 33.68 -32 33 C-32.66 33 -33.32 33 -34 33 C-34.33 31.35 -34.66 29.7 -35 28 C-35.66 28 -36.32 28 -37 28 C-37.41402196 18.93751926 -37.46209229 11.1376225 -31.4375 3.9375 C-29 2 -29 2 -27 2 C-27 1.34 -27 0.68 -27 0 C-18.21307985 -5.06937701 -8.94970991 -3.35614122 0 0 Z " fill="#C54134" transform="translate(219,82)"/>
<path d="M0 0 C2.97 0.495 2.97 0.495 6 1 C5.34 1.804375 4.68 2.60875 4 3.4375 C1.72698304 6.87553999 1.34391436 9.81654297 1.5625 13.89453125 C2.31552664 17.51847198 4.06709094 18.84520967 7 21 C9.27870666 22.31775741 11.58388017 23.57399318 13.90234375 24.8203125 C16.49183137 26.2765979 18.33896613 27.5084492 20 30 C19.6875 35.3125 19.6875 35.3125 18 37 C16.0390625 37.16796875 16.0390625 37.16796875 13.625 37.1875 C12.43777344 37.20876953 12.43777344 37.20876953 11.2265625 37.23046875 C9 37 9 37 6 35 C6 34.34 6 33.68 6 33 C5.13375 33.639375 4.2675 34.27875 3.375 34.9375 C0.0401188 36.97548296 -2.16047478 37.63433093 -6 38 C-6.6496875 36.8553125 -6.6496875 36.8553125 -7.3125 35.6875 C-8.80418988 33.08757614 -8.80418988 33.08757614 -10.43359375 31.57421875 C-12.13007205 29.86927922 -13.4235719 28.13024719 -14.75 26.125 C-15.42289063 25.13886719 -15.42289063 25.13886719 -16.109375 24.1328125 C-17.33900647 21.18816871 -17.08704548 20.0122947 -16 17 C-14.40004704 14.44022293 -12.57445028 12.10319543 -10.6875 9.75 C-10.20087891 9.11320312 -9.71425781 8.47640625 -9.21289062 7.8203125 C-8.73400391 7.21445313 -8.25511719 6.60859375 -7.76171875 5.984375 C-7.32819092 5.43491211 -6.89466309 4.88544922 -6.44799805 4.31933594 C-4.69817634 2.72499494 -3.27187083 2.52709986 -1 2 C-0.67 1.34 -0.34 0.68 0 0 Z " fill="#EFF3F6" transform="translate(147,80)"/>
<path d="M0 0 C1.22332031 -0.01417969 2.44664062 -0.02835937 3.70703125 -0.04296875 C7.03968329 0.17771191 9.25543854 0.62337056 12.1875 2.1875 C13 4.3125 13 4.3125 13.1875 6.1875 C8.4375 10.1875 8.4375 10.1875 6.1875 10.1875 C5.5275 9.1975 4.8675 8.2075 4.1875 7.1875 C2.21002878 6.82452064 2.21002878 6.82452064 0.0625 7 C-1.21625 7.061875 -2.495 7.12375 -3.8125 7.1875 C-3.8125 10.1575 -3.8125 13.1275 -3.8125 16.1875 C-0.5125 17.1775 2.7875 18.1675 6.1875 19.1875 C6.1875 19.8475 6.1875 20.5075 6.1875 21.1875 C6.950625 21.435 7.71375 21.6825 8.5 21.9375 C11.63213315 23.39430612 12.67467792 24.08223363 14.1875 27.1875 C14.97319606 31.24169169 15.08432895 34.66740314 12.9453125 38.29296875 C10.47207328 41.27685189 8.92054218 42.94315261 5.1875 44.1875 C-8.71444362 45.15265496 -8.71444362 45.15265496 -13.8125 41.1875 C-14.9375 39.25 -14.9375 39.25 -14.8125 37.1875 C-13 34.9375 -13 34.9375 -10.8125 33.1875 C-10.1525 33.1875 -9.4925 33.1875 -8.8125 33.1875 C-8.37292969 33.67863281 -7.93335938 34.16976562 -7.48046875 34.67578125 C-5.27589762 36.67383518 -4.04795816 36.50208514 -1.125 36.375 C-0.31675781 36.34792969 0.49148437 36.32085937 1.32421875 36.29296875 C2.24654297 36.24076172 2.24654297 36.24076172 3.1875 36.1875 C3.92084429 32.20995872 3.92084429 32.20995872 4.1875 28.1875 C2.21252211 27.18901452 0.23695301 26.21001439 -1.77734375 25.29296875 C-6.29010593 23.19297051 -9.44910141 20.95858327 -12.8125 17.1875 C-13.1425 16.8575 -13.4725 16.5275 -13.8125 16.1875 C-14.36970584 12.40646039 -14.65253776 8.70771759 -12.765625 5.29296875 C-8.6805769 0.35486649 -6.20944028 0.03251016 0 0 Z " fill="#C43B2D" transform="translate(161.8125,79.8125)"/>
<path d="M0 0 C0.33 0 0.66 0 1 0 C1 3.96 1 7.92 1 12 C1.66 12 2.32 12 3 12 C3.33 13.65 3.66 15.3 4 17 C4.66 17 5.32 17 6 17 C7.11375 18.423125 7.11375 18.423125 8.25 19.875 C10.75506601 23.045591 13.02004503 24.07442908 17 25 C17 25.66 17 26.32 17 27 C15.906875 27.20625 14.81375 27.4125 13.6875 27.625 C9.78812599 28.63567148 9.78812599 28.63567148 8.25 32 C7.63125 33.485 7.63125 33.485 7 35 C6.01 35.66 5.02 36.32 4 37 C3.34 36.67 2.68 36.34 2 36 C3.485 35.505 3.485 35.505 5 35 C5 34.34 5 33.68 5 33 C-0.28 33 -5.56 33 -11 33 C-11.33 31.02 -11.66 29.04 -12 27 C-16.95 27 -21.9 27 -27 27 C-27 26.67 -27 26.34 -27 26 C-25.67935547 25.94392578 -25.67935547 25.94392578 -24.33203125 25.88671875 C-22.58986328 25.78810547 -22.58986328 25.78810547 -20.8125 25.6875 C-19.66394531 25.62949219 -18.51539063 25.57148437 -17.33203125 25.51171875 C-13.03162443 24.85128113 -10.38946588 23.24572803 -7.1875 20.375 C-5.36056105 16.72112211 -5.45635041 13.0102983 -6 9 C-6.74012296 6.77911923 -6.74012296 6.77911923 -8 5 C-8.99 4.67 -9.98 4.34 -11 4 C-10.34 3.67 -9.68 3.34 -9 3 C-8.34 3.33 -7.68 3.66 -7 4 C-7 4.66 -7 5.32 -7 6 C-5.35 5.34 -3.7 4.68 -2 4 C-1.67 4.66 -1.34 5.32 -1 6 C-0.67 4.02 -0.34 2.04 0 0 Z " fill="#F0F1F3" transform="translate(181,98)"/>
<path d="M0 0 C6.03331362 4.98404168 11.5184171 10.41915303 17 16 C13.375 19 13.375 19 10 19 C10.39598702 21.87090587 10.7323843 22.78915127 13.0625 24.625 C13.701875 25.07875 14.34125 25.5325 15 26 C15 26.66 15 27.32 15 28 C12.26843041 28.16262928 9.54657878 28.28110686 6.8125 28.375 C6.04357422 28.42527344 5.27464844 28.47554687 4.48242188 28.52734375 C-1.19006686 28.67341642 -1.19006686 28.67341642 -3.59619141 26.67285156 C-4.81254735 25.17820338 -5.91366403 23.59165609 -7 22 C-7.66 21.67 -8.32 21.34 -9 21 C-7.97307681 18.94615363 -6.96823129 16.94917007 -5.75 15 C-4.72969157 12.95505381 -4.72969157 12.95505381 -5.875 10.75 C-6.24625 10.1725 -6.6175 9.595 -7 9 C-6.21654285 7.82780457 -5.42297164 6.66236332 -4.625 5.5 C-4.18414062 4.8503125 -3.74328125 4.200625 -3.2890625 3.53125 C-2.65097656 2.77328125 -2.65097656 2.77328125 -2 2 C-1.34 2 -0.68 2 0 2 C0 1.34 0 0.68 0 0 Z " fill="#E4EDF3" transform="translate(140,42)"/>
<path d="M0 0 C5.25174926 4.38442526 10.13222473 9.00842093 14.9375 13.875 C15.62134766 14.56335938 16.30519531 15.25171875 17.00976562 15.9609375 C18.67551464 17.63833511 20.3388622 19.31803791 22 21 C21.67 21.66 21.34 22.32 21 23 C20.34 23 19.68 23 19 23 C18.67 25.31 18.34 27.62 18 30 C17.01 29.67 16.02 29.34 15 29 C15 28.34 15 27.68 15 27 C14.443125 26.773125 13.88625 26.54625 13.3125 26.3125 C10.33840412 24.62449964 8.27991135 22.53323483 6 20 C6 19.34 6 18.68 6 18 C5.401875 17.73960937 4.80375 17.47921875 4.1875 17.2109375 C1.85352153 15.91891371 0.66026805 14.69131187 -1 12.625 C-3.21299835 9.93457815 -5.4852137 7.41806375 -8 5 C-6.8553125 4.87625 -6.8553125 4.87625 -5.6875 4.75 C-2.47626739 3.85384206 -1.70625501 2.78388975 0 0 Z " fill="#DFEBF3" transform="translate(69,118)"/>
<path d="M0 0 C2.31 0 4.62 0 7 0 C7 6.27 7 12.54 7 19 C7.66 19.33 8.32 19.66 9 20 C8.67 20.33 8.34 20.66 8 21 C7.91314397 22.56172745 7.89297781 24.12729344 7.90234375 25.69140625 C7.90556641 26.63564453 7.90878906 27.57988281 7.91210938 28.55273438 C7.92048828 29.54595703 7.92886719 30.53917969 7.9375 31.5625 C7.94201172 32.55958984 7.94652344 33.55667969 7.95117188 34.58398438 C7.96299993 37.05604849 7.97948151 39.52799518 8 42 C5.36 42 2.72 42 0 42 C0 28.14 0 14.28 0 0 Z " fill="#C53627" transform="translate(111,81)"/>
<path d="M0 0 C3.59678466 1.51228446 5.81419979 3.63672547 8.5 6.4375 C10.68830797 8.71199133 12.72777041 10.80188771 15.28125 12.66015625 C16.13203125 13.32337891 16.13203125 13.32337891 17 14 C17 14.66 17 15.32 17 16 C14.26843041 16.16262928 11.54657878 16.28110686 8.8125 16.375 C8.04357422 16.42527344 7.27464844 16.47554687 6.48242188 16.52734375 C0.80993314 16.67341642 0.80993314 16.67341642 -1.59619141 14.67285156 C-2.81254735 13.17820338 -3.91366403 11.59165609 -5 10 C-5.66 9.67 -6.32 9.34 -7 9 C-5.44499019 5.18315774 -2.96404505 2.80804268 0 0 Z " fill="#2B3E81" transform="translate(138,54)"/>
<path d="M0 0 C0 3 0 3 -2 6 C-2.43386092 9.87797662 -2.43386092 9.87797662 -0.5 11.75 C-0.005 12.1625 0.49 12.575 1 13 C-4.27101414 19.41069287 -10.09128152 25.18590512 -16 31 C-16.66 29.68 -17.32 28.36 -18 27 C-17.01 26.67 -16.02 26.34 -15 26 C-14.26676204 23.98491642 -14.26676204 23.98491642 -14 22 C-14.66 21.67 -15.32 21.34 -16 21 C-16 20.67 -16 20.34 -16 20 C-17.32 21.32 -18.64 22.64 -20 24 C-20.66 23.67 -21.32 23.34 -22 23 C-21.236875 22.2575 -20.47375 21.515 -19.6875 20.75 C-17.04428801 18.176446 -17.04428801 18.176446 -15.3125 15.6875 C-14.879375 15.130625 -14.44625 14.57375 -14 14 C-13.34 14 -12.68 14 -12 14 C-11.773125 13.443125 -11.54625 12.88625 -11.3125 12.3125 C-9.62622733 9.34144815 -7.469646 7.35477875 -5 5 C-4.071875 4.071875 -3.14375 3.14375 -2.1875 2.1875 C-1.465625 1.465625 -0.74375 0.74375 0 0 Z " fill="#DCE8F2" transform="translate(91,49)"/>
<path d="M0 0 C3.19032498 2.94491537 5.09144787 4.76009006 6 9 C6.99 9.33 7.98 9.66 9 10 C11.25498703 13.24718132 12.51178635 16.27946588 14 20 C10.37 20 6.74 20 3 20 C3 19.34 3 18.68 3 18 C2.34 18 1.68 18 1 18 C-1.70739406 13.42543762 -3.9914235 8.92101242 -6 4 C-5.195625 3.525625 -4.39125 3.05125 -3.5625 2.5625 C-1.15246512 1.23099846 -1.15246512 1.23099846 0 0 Z " fill="#C4382A" transform="translate(130,103)"/>
<path d="M0 0 C0.67095703 0.58007812 0.67095703 0.58007812 1.35546875 1.171875 C1.96003906 1.69265625 2.56460938 2.2134375 3.1875 2.75 C3.82300781 3.29785156 4.45851563 3.84570312 5.11328125 4.41015625 C6.6625797 5.71567275 8.26264654 6.96070933 9.875 8.1875 C12 10 12 10 13 13 C11.35 13.33 9.7 13.66 8 14 C8 14.99 8 15.98 8 17 C7.34 17 6.68 17 6 17 C6 17.66 6 18.32 6 19 C3.29068581 18.84518205 1.53415961 18.51827919 -0.4453125 16.59765625 C-1.67679642 15.10228292 -2.8429837 13.5537076 -4 12 C-3.01 12 -2.02 12 -1 12 C-1.309375 10.4221875 -1.309375 10.4221875 -1.625 8.8125 C-1.99963104 5.00375113 -1.71630067 3.33164248 0 0 Z " fill="#253B80" transform="translate(91,153)"/>
<path d="M0 0 C1.32 0.66 2.64 1.32 4 2 C4 2.66 4 3.32 4 4 C4.66 4 5.32 4 6 4 C6.33 3.34 6.66 2.68 7 2 C7 3.98 7 5.96 7 8 C7.66 8 8.32 8 9 8 C9 8.66 9 9.32 9 10 C10.32 10.66 11.64 11.32 13 12 C11.68 12.33 10.36 12.66 9 13 C9 13.99 9 14.98 9 16 C5.64710718 15.71260919 3.96043396 14.97186415 1.1875 13 C-1.71707212 9.01658681 -1.69378977 5.79706068 -1 1 C-0.67 0.67 -0.34 0.34 0 0 Z " fill="#C43A2B" transform="translate(149,86)"/>
<path d="M0 0 C0.69351563 0.00064453 1.38703125 0.00128906 2.1015625 0.00195312 C7.23456743 0.04706743 7.23456743 0.04706743 8.375 1.1875 C10.04117115 1.22813832 11.70888095 1.230221 13.375 1.1875 C13.375 4.1575 13.375 7.1275 13.375 10.1875 C11.725 9.5275 10.075 8.8675 8.375 8.1875 C8.375 7.5275 8.375 6.8675 8.375 6.1875 C4.745 5.8575 1.115 5.5275 -2.625 5.1875 C-2.625 4.1975 -2.625 3.2075 -2.625 2.1875 C-5.265 2.1875 -7.905 2.1875 -10.625 2.1875 C-6.96606495 -0.25179003 -4.22221667 -0.07539673 0 0 Z " fill="#C32F1E" transform="translate(205.625,80.8125)"/>
<path d="M0 0 C0.28875 0.639375 0.5775 1.27875 0.875 1.9375 C1.82823451 4.15206079 1.82823451 4.15206079 4 5 C3.01 5 2.02 5 1 5 C1 5.99 1 6.98 1 8 C-0.65 8 -2.3 8 -4 8 C-4.33 8.66 -4.66 9.32 -5 10 C-3.35 10.33 -1.7 10.66 0 11 C-0.33 11.66 -0.66 12.32 -1 13 C-5.77487878 11.52412838 -5.77487878 11.52412838 -8 10 C-9.125 6.5 -9.125 6.5 -9 3 C-6.92023744 -0.79250819 -3.97766606 -0.26517774 0 0 Z " fill="#EEECEC" transform="translate(166,86)"/>
<path d="M0 0 C0 2.64 0 5.28 0 8 C-4.07723734 9.95031692 -7.31692422 10.21581971 -11.8125 10.125 C-12.97394531 10.10695313 -14.13539063 10.08890625 -15.33203125 10.0703125 C-16.21246094 10.04710938 -17.09289062 10.02390625 -18 10 C-17.67 9.01 -17.34 8.02 -17 7 C-16.01 7 -15.02 7 -14 7 C-14.66 6.34 -15.32 5.68 -16 5 C-12.7 5 -9.4 5 -6 5 C-5.34 3.68 -4.68 2.36 -4 1 C-2 0 -2 0 0 0 Z " fill="#C8392B" transform="translate(218,114)"/>
<path d="M0 0 C0.33 0.66 0.66 1.32 1 2 C3.52733235 2.65555119 3.52733235 2.65555119 6 3 C6.66 2.01 7.32 1.02 8 0 C8.8046875 1.671875 8.8046875 1.671875 9 4 C6.9453125 6.578125 6.9453125 6.578125 4.125 9.25 C3.19945312 10.14203125 2.27390625 11.0340625 1.3203125 11.953125 C-1 14 -1 14 -2 14 C-2 11.36 -2 8.72 -2 6 C-3.32 6.99 -4.64 7.98 -6 9 C-6.66 8.67 -7.32 8.34 -8 8 C-5.36 5.36 -2.72 2.72 0 0 Z " fill="#E2ECF3" transform="translate(154,134)"/>
<path d="M0 0 C0.43957031 0.48082031 0.87914062 0.96164063 1.33203125 1.45703125 C3.46686683 3.43187915 4.82235679 3.47988093 7.6875 3.6875 C8.49574219 3.75324219 9.30398437 3.81898437 10.13671875 3.88671875 C10.75160156 3.92410156 11.36648437 3.96148437 12 4 C12 4.33 12 4.66 12 5 C9.69 5.33 7.38 5.66 5 6 C5 7.32 5 8.64 5 10 C1.9993581 11.26950234 0.94815444 10.98068499 -2.1875 9.8125 C-5 8 -5 8 -6.125 6.0625 C-6 4 -6 4 -4.1875 1.75 C-2 0 -2 0 0 0 Z " fill="#C5483D" transform="translate(153,113)"/>
<path d="M0 0 C8 8 8 8 8 14 C7.4225 13.773125 6.845 13.54625 6.25 13.3125 C3.47746947 12.65819992 3.47746947 12.65819992 0 16 C0 10.72 0 5.44 0 0 Z " fill="#F0F0F4" transform="translate(120,103)"/>
<path d="M0 0 C0.5775 0.2475 1.155 0.495 1.75 0.75 C1.75 1.41 1.75 2.07 1.75 2.75 C0.10546875 4.15234375 0.10546875 4.15234375 -2.0625 5.6875 C-7.30278362 9.30961508 -7.30278362 9.30961508 -10.25 14.75 C-12.0625 16 -12.0625 16 -14.25 16.75 C-16.38671875 16.296875 -16.38671875 16.296875 -18.25 15.75 C-16.96451591 14.41070495 -15.67141845 13.07871357 -14.375 11.75 C-13.65570313 11.0075 -12.93640625 10.265 -12.1953125 9.5 C-10.25 7.75 -10.25 7.75 -8.25 7.75 C-8.0025 7.1725 -7.755 6.595 -7.5 6 C-3.9244186 -0.43604651 -3.9244186 -0.43604651 0 0 Z " fill="#2B4083" transform="translate(87.25,39.25)"/>
<path d="M0 0 C2.97 0.495 2.97 0.495 6 1 C5.34 1.804375 4.68 2.60875 4 3.4375 C1.26838796 7.47720794 1.67776796 11.3007827 2 16 C2 16.99 2 17.98 2 19 C-0.49505962 16.50494038 -0.35948376 15.32671112 -0.625 11.875 C-0.69976562 10.96492188 -0.77453125 10.05484375 -0.8515625 9.1171875 C-0.90054688 8.41851562 -0.94953125 7.71984375 -1 7 C-4.20395416 7 -6.09399739 7.74335022 -9 9 C-5.53475936 3.18334607 -5.53475936 3.18334607 -2.8125 2.25 C-2.214375 2.1675 -1.61625 2.085 -1 2 C-0.67 1.34 -0.34 0.68 0 0 Z " fill="#EFEBEC" transform="translate(147,80)"/>
<path d="M0 0 C4.29 0 8.58 0 13 0 C6.97321429 7.09821429 6.97321429 7.09821429 4 10 C3.34 9.67 2.68 9.34 2 9 C1.375 6.4375 1.375 6.4375 1 4 C1.99 4 2.98 4 4 4 C4 3.34 4 2.68 4 2 C2.68 1.67 1.36 1.34 0 1 C0 0.67 0 0.34 0 0 Z " fill="#18317A" transform="translate(172,132)"/>
<path d="M0 0 C1.98 0.66 3.96 1.32 6 2 C2.6189962 6.13621084 -0.66590534 9.81316569 -5 13 C-6 10 -6 10 -5.25 8.125 C-4.8375 7.42375 -4.425 6.7225 -4 6 C-3.484375 5.113125 -2.96875 4.22625 -2.4375 3.3125 C-1 1 -1 1 0 0 Z " fill="#DDE8F2" transform="translate(55,61)"/>
<path d="M0 0 C2.375 -0.1875 2.375 -0.1875 5 0 C5.66 0.99 6.32 1.98 7 3 C4.69 5.64 2.38 8.28 0 11 C-0.99 10.67 -1.98 10.34 -3 10 C-2.34 8.35 -1.68 6.7 -1 5 C-1.66 5 -2.32 5 -3 5 C-2.67 4.01 -2.34 3.02 -2 2 C-1.01 2 -0.02 2 1 2 C0.67 1.34 0.34 0.68 0 0 Z " fill="#253A81" transform="translate(82,148)"/>
<path d="M0 0 C1.37478516 0.01740234 1.37478516 0.01740234 2.77734375 0.03515625 C3.69644531 0.04417969 4.61554688 0.05320312 5.5625 0.0625 C6.27277344 0.07410156 6.98304688 0.08570312 7.71484375 0.09765625 C5.99329587 3.86253667 3.72250261 6.24829522 0.71484375 9.09765625 C0.38484375 7.44765625 0.05484375 5.79765625 -0.28515625 4.09765625 C-0.94515625 4.09765625 -1.60515625 4.09765625 -2.28515625 4.09765625 C-2.61515625 3.10765625 -2.94515625 2.11765625 -3.28515625 1.09765625 C-2.28515625 0.09765625 -2.28515625 0.09765625 0 0 Z " fill="#C14C42" transform="translate(136.28515625,79.90234375)"/>
<path d="M0 0 C0.33 0 0.66 0 1 0 C1 5.94 1 11.88 1 18 C1.66 18 2.32 18 3 18 C3.33 17.34 3.66 16.68 4 16 C4 18.31 4 20.62 4 23 C3.01 22.67 2.02 22.34 1 22 C1 28.27 1 34.54 1 41 C0.67 41 0.34 41 0 41 C0 27.33333333 0 13.66666667 0 0 Z " fill="#C4493F" transform="translate(118,81)"/>
<path d="M0 0 C0 3.3 0 6.6 0 10 C-0.66 10 -1.32 10 -2 10 C-2 7.36 -2 4.72 -2 2 C-2.969375 2.495 -3.93875 2.99 -4.9375 3.5 C-10.29132681 5.79139444 -15.55947271 5.79690687 -21.0625 4 C-21.701875 3.67 -22.34125 3.34 -23 3 C-20.30857021 1.6542851 -18.53908059 2.11731006 -15.5625 2.4375 C-12.67368077 2.74138378 -9.90652281 3 -7 3 C-7 2.34 -7 1.68 -7 1 C-4.50935112 0.31292445 -2.62113708 0 0 0 Z " fill="#EFD6D1" transform="translate(220,112)"/>
<path d="M0 0 C1 3 1 3 1 6 C-2.78369317 9.58175449 -7.72980042 13 -13 13 C-8.71 8.71 -4.42 4.42 0 0 Z " fill="#D6E2EA" transform="translate(132,38)"/>
<path d="M0 0 C3.76638232 1.88319116 5.18291864 6.36583729 7 10 C4.03 9.67 1.06 9.34 -2 9 C-1.125 2.25 -1.125 2.25 0 0 Z " fill="#C44335" transform="translate(137,112)"/>
<path d="M0 0 C0.66 4.95 1.32 9.9 2 15 C0 14 0 14 -1 11 C-1.474375 10.54625 -1.94875 10.0925 -2.4375 9.625 C-4.37092514 7.61423786 -5.0831564 5.60947795 -6 3 C-1.125 0 -1.125 0 0 0 Z " fill="#EEE8EB" transform="translate(139,102)"/>
<path d="M0 0 C0.99 0 1.98 0 3 0 C3 0.66 3 1.32 3 2 C3.66 2 4.32 2 5 2 C4.34 4.64 3.68 7.28 3 10 C1.87105124 9.06725891 0.74699124 8.12859878 -0.375 7.1875 C-1.00148437 6.66542969 -1.62796875 6.14335938 -2.2734375 5.60546875 C-4 4 -4 4 -6 1 C-4 2 -2 3 0 4 C-0.33 3.01 -0.66 2.02 -1 1 C-0.67 0.67 -0.34 0.34 0 0 Z " fill="#1B3078" transform="translate(163,57)"/>
<path d="M0 0 C5.28 0 10.56 0 16 0 C10.25 6.875 10.25 6.875 8 8 C8.33 5.69 8.66 3.38 9 1 C5.7 1.33 2.4 1.66 -1 2 C-0.67 1.34 -0.34 0.68 0 0 Z " fill="#13226F" transform="translate(139,133)"/>
<path d="M0 0 C0.66 0.66 1.32 1.32 2 2 C1.625 4.125 1.625 4.125 1 6 C1 5.34 1 4.68 1 4 C-1.0343459 5.41519715 -1.90410393 6.54982123 -2.421875 8.98046875 C-2.66273952 10.98176954 -2.83532741 12.9909944 -3 15 C-3.99 15 -4.98 15 -6 15 C-6.9375 12.5625 -6.9375 12.5625 -7 9 C-4.96963713 5.73122208 -2.55666202 2.86907209 0 0 Z " fill="#F0E9EB" transform="translate(137,89)"/>
<path d="M0 0 C0.99 0.33 1.98 0.66 3 1 C2.34 1 1.68 1 1 1 C1 2.65 1 4.3 1 6 C-2.11771927 7.60339848 -3.39011689 8.18974141 -6.8125 7.125 C-7.534375 6.75375 -8.25625 6.3825 -9 6 C-7.35 4.35 -5.7 2.7 -4 1 C-3.01 1.33 -2.02 1.66 -1 2 C-0.67 1.34 -0.34 0.68 0 0 Z " fill="#C8372B" transform="translate(170,116)"/>
<path d="M0 0 C0.66 1.32 1.32 2.64 2 4 C-1.3995585 8.73509934 -1.3995585 8.73509934 -4.125 9.9375 C-4.74375 9.958125 -5.3625 9.97875 -6 10 C-6.66 9.34 -7.32 8.68 -8 8 C-5.36 5.36 -2.72 2.72 0 0 Z " fill="#334786" transform="translate(154,146)"/>
<path d="M0 0 C0.66 0 1.32 0 2 0 C2 2.64 2 5.28 2 8 C-2.07723734 9.95031692 -5.31692422 10.21581971 -9.8125 10.125 C-10.97394531 10.10695313 -12.13539063 10.08890625 -13.33203125 10.0703125 C-14.21246094 10.04710938 -15.09289062 10.02390625 -16 10 C-16 9.67 -16 9.34 -16 9 C-11.38 8.67 -6.76 8.34 -2 8 C-2 6.68 -2 5.36 -2 4 C-1.34 3.67 -0.68 3.34 0 3 C0 2.01 0 1.02 0 0 Z " fill="#BC2115" transform="translate(216,114)"/>
<path d="M0 0 C0.33 0.99 0.66 1.98 1 3 C-0.32 3.33 -1.64 3.66 -3 4 C-3 3.34 -3 2.68 -3 2 C-3.66 2 -4.32 2 -5 2 C-5.33 4.64 -5.66 7.28 -6 10 C-6.66 10 -7.32 10 -8 10 C-9.32850242 3.59903382 -9.32850242 3.59903382 -7.9375 1.0625 C-5.23787512 -0.41793945 -3.02429981 -0.20161999 0 0 Z " fill="#EEDCDD" transform="translate(166,86)"/>
<path d="M0 0 C0.33 0.99 0.66 1.98 1 3 C1.66 3 2.32 3 3 3 C2.34 4.65 1.68 6.3 1 8 C-3.455 8.495 -3.455 8.495 -8 9 C-2.25 2.25 -2.25 2.25 0 0 Z " fill="#2E4485" transform="translate(126,27)"/>
<path d="M0 0 C2 1 2 1 3 3 C2.67 3.66 2.34 4.32 2 5 C2.99 5.33 3.98 5.66 5 6 C4.67 8.31 4.34 10.62 4 13 C3.34 11.68 2.68 10.36 2 9 C1.34 9 0.68 9 0 9 C-1.625 7 -1.625 7 -3 5 C-1.125 1.125 -1.125 1.125 0 0 Z " fill="#C44334" transform="translate(153,81)"/>
<path d="M0 0 C0.33 0.66 0.66 1.32 1 2 C1.66 2.33 2.32 2.66 3 3 C2.1028125 3.0928125 2.1028125 3.0928125 1.1875 3.1875 C-1.2132648 3.8093895 -1.2132648 3.8093895 -2.25 6.25 C-4.70651423 10.11023665 -8.06619369 11.80416987 -12 14 C-10.41332422 10.09714233 -7.86649519 7.66479018 -4.875 4.75 C-3.96492188 3.85796875 -3.05484375 2.9659375 -2.1171875 2.046875 C-1.41851562 1.37140625 -0.71984375 0.6959375 0 0 Z " fill="#435793" transform="translate(111,42)"/>
<path d="M0 0 C0.33 0 0.66 0 1 0 C1.66 5.61 2.32 11.22 3 17 C1.02 17.99 1.02 17.99 -1 19 C-1.33 19.66 -1.66 20.32 -2 21 C-2.66 19.35 -3.32 17.7 -4 16 C-2.68 15.34 -1.36 14.68 0 14 C0 9.38 0 4.76 0 0 Z " fill="#C02518" transform="translate(190,97)"/>
<path d="M0 0 C3.3 0 6.6 0 10 0 C8.68 1.32 7.36 2.64 6 4 C7.32 4.66 8.64 5.32 10 6 C6.37 6 2.74 6 -1 6 C-0.01 5.34 0.98 4.68 2 4 C2 3.34 2 2.68 2 2 C1.34 1.34 0.68 0.68 0 0 Z " fill="#C02517" transform="translate(156,118)"/>
<path d="M0 0 C0.33 0.66 0.66 1.32 1 2 C1.66 2 2.32 2 3 2 C4.125 7.75 4.125 7.75 3 10 C1 10 1 10 -0.6875 8.875 C-2 7 -2 7 -1.75 3.875 C-1 1 -1 1 0 0 Z " fill="#C53324" transform="translate(133,82)"/>
<path d="M0 0 C0.66 0 1.32 0 2 0 C2 0.66 2 1.32 2 2 C3.98 2 5.96 2 8 2 C8.66 3.32 9.32 4.64 10 6 C9.01 6.495 9.01 6.495 8 7 C8 8.32 8 9.64 8 11 C7.34 11 6.68 11 6 11 C1.71428571 3.57142857 1.71428571 3.57142857 0 0 Z " fill="#C64F45" transform="translate(125,110)"/>
<path d="M0 0 C-4.29 0 -8.58 0 -13 0 C-13 0.66 -13 1.32 -13 2 C-16.465 3.485 -16.465 3.485 -20 5 C-18.8483054 1.54491619 -18.01153326 0.89296376 -15 -1 C-9.77390999 -2.98231001 -4.89818413 -2.44909207 0 0 Z " fill="#E0B4B0" transform="translate(214,88)"/>
<path d="M0 0 C0 2 0 2 -1.1875 3.3125 C-1.785625 3.869375 -2.38375 4.42625 -3 5 C-3.886875 5.886875 -4.77375 6.77375 -5.6875 7.6875 C-6.450625 8.450625 -7.21375 9.21375 -8 10 C-8.3125 7.25 -8.3125 7.25 -8 4 C-5.23478237 1.16004675 -4.0129782 0 0 0 Z " fill="#EFE7E9" transform="translate(128,88)"/>
<path d="M0 0 C1 2 1 2 2 5 C2.6599679 6.66933058 3.32558869 8.3364521 4 10 C3.01 10.99 2.02 11.98 1 13 C-1.24510613 10.56780169 -1.97120564 9.28218472 -2.3125 5.9375 C-2 3 -2 3 0 0 Z " fill="#C84B41" transform="translate(131,83)"/>
<path d="M0 0 C0.5534764 2.07553648 1 3.84365964 1 6 C1.99 6 2.98 6 4 6 C4 6.66 4 7.32 4 8 C1.36 8 -1.28 8 -4 8 C-3.67 6.35 -3.34 4.7 -3 3 C-2.01 2.67 -1.02 2.34 0 2 C0 1.34 0 0.68 0 0 Z " fill="#F1F7FB" transform="translate(161,108)"/>
<path d="M0 0 C2.5625 2.1875 2.5625 2.1875 5 5 C4.8125 7.8125 4.8125 7.8125 4 10 C3.01 9.67 2.02 9.34 1 9 C-0.4783226 6.04335481 -0.06032783 3.25770263 0 0 Z " fill="#EDE4E6" transform="translate(120,103)"/>
<path d="M0 0 C0.99 0 1.98 0 3 0 C3.33 1.32 3.66 2.64 4 4 C4.66 3.67 5.32 3.34 6 3 C5.67 4.65 5.34 6.3 5 8 C4.01 8 3.02 8 2 8 C1.67 8.66 1.34 9.32 1 10 C0 9 0 9 -0.09765625 6.93359375 C-0.08605469 6.10988281 -0.07445313 5.28617187 -0.0625 4.4375 C-0.05347656 3.61121094 -0.04445313 2.78492187 -0.03515625 1.93359375 C-0.02355469 1.29550781 -0.01195313 0.65742187 0 0 Z " fill="#C53626" transform="translate(122,96)"/>
<path d="M0 0 C2.17578125 0.36328125 2.17578125 0.36328125 4 1 C3.04578192 2.14926266 2.08647955 3.29430541 1.125 4.4375 C0.59132813 5.07558594 0.05765625 5.71367188 -0.4921875 6.37109375 C-2 8 -2 8 -4 9 C-4.8125 7.3125 -4.8125 7.3125 -5 5 C-2.8125 2.1875 -2.8125 2.1875 0 0 Z " fill="#2E4585" transform="translate(72,64)"/>
<path d="M0 0 C0.99 0.66 1.98 1.32 3 2 C2.34 2.639375 1.68 3.27875 1 3.9375 C-1.70566593 8.08055095 -1.32321807 11.20559868 -1 16 C-1 16.99 -1 17.98 -1 19 C-3 17 -3 17 -3.23046875 14.28515625 C-3.21628906 13.22167969 -3.20210937 12.15820312 -3.1875 11.0625 C-3.18105469 10.00160156 -3.17460937 8.94070312 -3.16796875 7.84765625 C-3 5 -3 5 -2 2 C-1.34 2 -0.68 2 0 2 C0 1.34 0 0.68 0 0 Z " fill="#EBD0CE" transform="translate(150,80)"/>
<path d="M0 0 C0 3 0 3 -1.390625 4.53515625 C-2.31101562 5.29119141 -2.31101562 5.29119141 -3.25 6.0625 C-4.15492187 6.82240234 -4.15492187 6.82240234 -5.078125 7.59765625 C-6.98011741 8.98549217 -8.86654531 10.01351321 -11 11 C-9.63310446 7.84930578 -8.14342115 5.99108226 -5.5 3.8125 C-4.8915625 3.30332031 -4.283125 2.79414063 -3.65625 2.26953125 C-2 1 -2 1 0 0 Z " fill="#1B2E75" transform="translate(129,145)"/>
<path d="M0 0 C0 3 0 3 -2.01171875 5.69921875 C-5.24252839 8.18673101 -6.76295236 8.45550685 -10.77148438 8.08398438 C-11.44501953 7.99439453 -12.11855469 7.90480469 -12.8125 7.8125 C-13.50537109 7.74224609 -14.19824219 7.67199219 -14.91210938 7.59960938 C-16.61074484 7.42388847 -18.3059164 7.2152232 -20 7 C-20 6.67 -20 6.34 -20 6 C-19.11957031 5.96261719 -18.23914063 5.92523438 -17.33203125 5.88671875 C-16.17058594 5.82097656 -15.00914062 5.75523438 -13.8125 5.6875 C-12.66394531 5.62949219 -11.51539063 5.57148437 -10.33203125 5.51171875 C-5.84004557 4.82185928 -3.1811685 3.1811685 0 0 Z " fill="#DBB1AF" transform="translate(174,118)"/>
<path d="M0 0 C7.50769231 0.61538462 7.50769231 0.61538462 10 2.5625 C10.33 3.036875 10.66 3.51125 11 4 C10.21625 3.814375 9.4325 3.62875 8.625 3.4375 C6.02910225 2.74037734 6.02910225 2.74037734 4 4 C3.01 5.485 3.01 5.485 2 7 C0.68 6.34 -0.64 5.68 -2 5 C-1.34 4.67 -0.68 4.34 0 4 C0.66 4.33 1.32 4.66 2 5 C1.34 3.35 0.68 1.7 0 0 Z " fill="#C13121" transform="translate(160,99)"/>
<path d="M0 0 C0.20140476 3.62528568 -0.14223235 5.86501708 -2 9 C-4.50037734 6.82575883 -5.43628586 5.26954202 -6 2 C-1.125 0 -1.125 0 0 0 Z " fill="#C63F32" transform="translate(194,113)"/>
<path d="M0 0 C2.475 0.99 2.475 0.99 5 2 C3.02 2.99 3.02 2.99 1 4 C1 4.99 1 5.98 1 7 C-1.4375 6.625 -1.4375 6.625 -4 6 C-4.33 5.34 -4.66 4.68 -5 4 C-4.01 4 -3.02 4 -2 4 C-1.34 2.68 -0.68 1.36 0 0 Z " fill="#C03021" transform="translate(157,95)"/>
<path d="M0 0 C1.98 0 3.96 0 6 0 C6.33 1.32 6.66 2.64 7 4 C4.69 4 2.38 4 0 4 C-0.33 3.34 -0.66 2.68 -1 2 C-0.67 1.34 -0.34 0.68 0 0 Z " fill="#C83527" transform="translate(167,104)"/>
<path d="M0 0 C0.66 0 1.32 0 2 0 C2 3.63 2 7.26 2 11 C0.68 11 -0.64 11 -2 11 C-2.33 11.66 -2.66 12.32 -3 13 C-3 12.34 -3 11.68 -3 11 C-3.66 10.67 -4.32 10.34 -5 10 C-4.67 9.34 -4.34 8.68 -4 8 C-2.02 8.495 -2.02 8.495 0 9 C0 6.03 0 3.06 0 0 Z " fill="#E7D7D6" transform="translate(218,81)"/>
<path d="M0 0 C1.134375 0.020625 2.26875 0.04125 3.4375 0.0625 C2.4475 1.5475 2.4475 1.5475 1.4375 3.0625 C1.1075 4.0525 0.7775 5.0425 0.4375 6.0625 C-0.8825 5.7325 -2.2025 5.4025 -3.5625 5.0625 C-4.125 3.125 -4.125 3.125 -4.5625 1.0625 C-3.5625 0.0625 -3.5625 0.0625 0 0 Z " fill="#C33222" transform="translate(158.5625,80.9375)"/>
<path d="M0 0 C0.99 0 1.98 0 3 0 C3 0.99 3 1.98 3 3 C5.97 3.33 8.94 3.66 12 4 C12 4.33 12 4.66 12 5 C8.37 5 4.74 5 1 5 C0.67 3.35 0.34 1.7 0 0 Z " fill="#C11F17" transform="translate(132,118)"/>
<path d="M0 0 C0.66 0.33 1.32 0.66 2 1 C2.05399736 2.45792884 2.09279177 3.91642712 2.125 5.375 C2.14820313 6.18710938 2.17140625 6.99921875 2.1953125 7.8359375 C2 10 2 10 0 12 C0 9.36 0 6.72 0 4 C-0.99 4.99 -1.98 5.98 -3 7 C-2.67 5.35 -2.34 3.7 -2 2 C-1.34 2 -0.68 2 0 2 C0 1.34 0 0.68 0 0 Z " fill="#BF4F46" transform="translate(174,106)"/>
<path d="M0 0 C0 4.05345102 -1.58160112 5.8215329 -4 9 C-4.99 9.33 -5.98 9.66 -7 10 C-7.66 9.67 -8.32 9.34 -9 9 C-6.03 6.03 -3.06 3.06 0 0 Z " fill="#CEDBE7" transform="translate(118,52)"/>
<path d="M0 0 C0 3 0 3 -1 6 C-2.875 7.75 -2.875 7.75 -5 9 C-5.99 8.67 -6.98 8.34 -8 8 C-5.36 5.36 -2.72 2.72 0 0 Z " fill="#D2E0EE" transform="translate(126,162)"/>
<path d="M0 0 C0.33 0.99 0.66 1.98 1 3 C0.67 3.66 0.34 4.32 0 5 C-2.7696959 5.72886734 -5.12862585 6 -8 6 C-7.0479279 4.99403703 -6.08812654 3.99538437 -5.125 3 C-4.59132813 2.443125 -4.05765625 1.88625 -3.5078125 1.3125 C-2 0 -2 0 0 0 Z " fill="#192D74" transform="translate(114,160)"/>
<path d="M0 0 C0.66 1.32 1.32 2.64 2 4 C0.25 6.0625 0.25 6.0625 -2 8 C-4.25 7.75 -4.25 7.75 -6 7 C-5.67 5.68 -5.34 4.36 -5 3 C-3.35 3.33 -1.7 3.66 0 4 C0 2.68 0 1.36 0 0 Z " fill="#C9463B" transform="translate(129,99)"/>
<path d="M0 0 C1.175625 0.5259375 1.175625 0.5259375 2.375 1.0625 C3.674375 1.5265625 3.674375 1.5265625 5 2 C5.66 1.67 6.32 1.34 7 1 C7.33 1.99 7.66 2.98 8 4 C6.68 4.99 5.36 5.98 4 7 C4 6.34 4 5.68 4 5 C3.01 5.33 2.02 5.66 1 6 C0.67 4.02 0.34 2.04 0 0 Z " fill="#D9E6F1" transform="translate(76,87)"/>
<path d="M0 0 C0.66 0.33 1.32 0.66 2 1 C-0.37823834 5.84455959 -0.37823834 5.84455959 -2 8 C-4.75 8.9375 -4.75 8.9375 -7 9 C-5.03681826 5.46627288 -2.95929119 2.75520215 0 0 Z " fill="#D0DFEB" transform="translate(67,73)"/>
<path d="M0 0 C0.99 0 1.98 0 3 0 C3 3.3 3 6.6 3 10 C2.34 10 1.68 10 1 10 C1 7.36 1 4.72 1 2 C0.34 1.67 -0.32 1.34 -1 1 C-0.67 0.67 -0.34 0.34 0 0 Z " fill="#E1ADAA" transform="translate(217,112)"/>
<path d="M0 0 C1.98 1.65 3.96 3.3 6 5 C4.02 5.99 4.02 5.99 2 7 C0.4375 4.625 0.4375 4.625 -1 2 C-0.67 1.34 -0.34 0.68 0 0 Z " fill="#D8E2EA" transform="translate(134,36)"/>
<path d="M0 0 C0.66 0 1.32 0 2 0 C2 0.66 2 1.32 2 2 C2.66 2.33 3.32 2.66 4 3 C3.01 3.33 2.02 3.66 1 4 C1.33 4.99 1.66 5.98 2 7 C1.34 7 0.68 7 0 7 C0 6.01 0 5.02 0 4 C-0.99 4.33 -1.98 4.66 -3 5 C-1.125 1.125 -1.125 1.125 0 0 Z " fill="#D8E6F0" transform="translate(37,81)"/>
<path d="M0 0 C0.66 0 1.32 0 2 0 C2.33 1.32 2.66 2.64 3 4 C-1.75 8 -1.75 8 -4 8 C-4.33 7.01 -4.66 6.02 -5 5 C-3.02 4.67 -1.04 4.34 1 4 C0.67 2.68 0.34 1.36 0 0 Z " fill="#CB746E" transform="translate(172,82)"/>
<path d="M0 0 C0.66 0 1.32 0 2 0 C2 0.66 2 1.32 2 2 C2.99 2 3.98 2 5 2 C5 1.34 5 0.68 5 0 C5.66 0 6.32 0 7 0 C7 1.32 7 2.64 7 4 C5.68 4.33 4.36 4.66 3 5 C2.01 3.35 1.02 1.7 0 0 Z " fill="#F5F0EF" transform="translate(193,109)"/>
<path d="M0 0 C0.33 0.99 0.66 1.98 1 3 C1.99 3 2.98 3 4 3 C3.67 4.32 3.34 5.64 3 7 C1.0625 6.25 1.0625 6.25 -1 5 C-1.75 2.875 -1.75 2.875 -2 1 C-1.34 0.67 -0.68 0.34 0 0 Z " fill="#C54735" transform="translate(215,84)"/>
<path d="M0 0 C0.66 0.33 1.32 0.66 2 1 C2 1.99 2 2.98 2 4 C0.35 4.33 -1.3 4.66 -3 5 C-3 3.68 -3 2.36 -3 1 C-2.01 0.67 -1.02 0.34 0 0 Z " fill="#C53425" transform="translate(171,82)"/>
<path d="M0 0 C0.66 0.66 1.32 1.32 2 2 C1.625 4.125 1.625 4.125 1 6 C-0.65 5.67 -2.3 5.34 -4 5 C-2.68 3.35 -1.36 1.7 0 0 Z " fill="#2D4186" transform="translate(83,52)"/>
<path d="M0 0 C2.25 0.25 2.25 0.25 4 1 C4 1.66 4 2.32 4 3 C1.64561267 4.42944945 0.51967567 5.08661261 -2.25 4.625 C-2.8275 4.41875 -3.405 4.2125 -4 4 C-2.25 1.9375 -2.25 1.9375 0 0 Z " fill="#2D4485" transform="translate(73,51)"/>
<path d="M0 0 C1.33332095 2.6666419 0.67102033 4.16680303 0 7 C-4 7 -4 7 -6 6 C-4.02 4.02 -2.04 2.04 0 0 Z " fill="#D1DDED" transform="translate(140,148)"/>
<path d="M0 0 C0.66 0.66 1.32 1.32 2 2 C1.625 4.125 1.625 4.125 1 6 C1 5.34 1 4.68 1 4 C-0.32 5.32 -1.64 6.64 -3 8 C-3.66 7.67 -4.32 7.34 -5 7 C-3.35 4.69 -1.7 2.38 0 0 Z " fill="#EBDCDD" transform="translate(137,89)"/>
<path d="M0 0 C0.66 0.33 1.32 0.66 2 1 C1.34 2.65 0.68 4.3 0 6 C0.66 6.33 1.32 6.66 2 7 C1.67 7.99 1.34 8.98 1 10 C-0.5625 8.25 -0.5625 8.25 -2 6 C-1.72330471 3.64809002 -1.05656463 2.11312926 0 0 Z " fill="#C5D5E3" transform="translate(58,82)"/>
<path d="M0 0 C0.33 1.32 0.66 2.64 1 4 C-0.32 4.99 -1.64 5.98 -3 7 C-3.66 6.34 -4.32 5.68 -5 5 C-3.35 3.35 -1.7 1.7 0 0 Z " fill="#43578F" transform="translate(145,155)"/>
<path d="M0 0 C1.32 0.66 2.64 1.32 4 2 C3.01 3.485 3.01 3.485 2 5 C0.68 5 -0.64 5 -2 5 C-2 4.34 -2 3.68 -2 3 C-1.34 3 -0.68 3 0 3 C0 2.01 0 1.02 0 0 Z " fill="#193276" transform="translate(105,138)"/>
<path d="M0 0 C0.99 0 1.98 0 3 0 C3 0.99 3 1.98 3 3 C2.34 3 1.68 3 1 3 C0.34 4.32 -0.32 5.64 -1 7 C-1.33 5.68 -1.66 4.36 -2 3 C-1.34 3 -0.68 3 0 3 C0 2.01 0 1.02 0 0 Z " fill="#D1DFEB" transform="translate(96,53)"/>
<path d="M0 0 C2 0.25 2 0.25 4 1 C4.33 1.99 4.66 2.98 5 4 C4.01 4.33 3.02 4.66 2 5 C1.01 3.68 0.02 2.36 -1 1 C-0.67 0.67 -0.34 0.34 0 0 Z " fill="#253C82" transform="translate(98,173)"/>
<path d="M0 0 C0.66 0.33 1.32 0.66 2 1 C2 1.66 2 2.32 2 3 C1.34 3 0.68 3 0 3 C0 3.66 0 4.32 0 5 C-1.65 4.67 -3.3 4.34 -5 4 C-3.35 2.68 -1.7 1.36 0 0 Z " fill="#2D4186" transform="translate(97,167)"/>
<path d="M0 0 C3.6 5.4 3.6 5.4 5 8 C4.67 8.66 4.34 9.32 4 10 C3.34 10 2.68 10 2 10 C0.68373308 6.38026598 0 3.90432869 0 0 Z " fill="#C2574C" transform="translate(192,107)"/>
<path d="M0 0 C0.99 0.33 1.98 0.66 3 1 C3.625 3.875 3.625 3.875 4 7 C3.34 7.66 2.68 8.32 2 9 C1.06576355 5.98968256 0.95550089 5.13349732 2 2 C1.34 2 0.68 2 0 2 C0 1.34 0 0.68 0 0 Z " fill="#EBDCD9" transform="translate(163,107)"/>
<path d="M0 0 C0.99 0.33 1.98 0.66 3 1 C2.67 3.31 2.34 5.62 2 8 C1.34 6.68 0.68 5.36 0 4 C-0.66 4 -1.32 4 -2 4 C-1.34 2.68 -0.68 1.36 0 0 Z " fill="#C85047" transform="translate(155,86)"/>
<path d="M0 0 C2.64 0 5.28 0 8 0 C7.34 1.32 6.68 2.64 6 4 C5.38125 3.67 4.7625 3.34 4.125 3 C2.08981656 1.85806765 2.08981656 1.85806765 0 2 C0 1.34 0 0.68 0 0 Z " fill="#BF3827" transform="translate(135,81)"/>
<path d="M0 0 C0 3.90838866 -1.50567876 5.11594107 -4 8 C-4.66 7.34 -5.32 6.68 -6 6 C-4.02 4.02 -2.04 2.04 0 0 Z " fill="#BAC9DC" transform="translate(91,49)"/>
<path d="M0 0 C1.32 0.66 2.64 1.32 4 2 C4 2.99 4 3.98 4 5 C1 5 1 5 -1 4 C-0.67 2.68 -0.34 1.36 0 0 Z " fill="#203478" transform="translate(100,25)"/>
</svg>
